{
    "asset" : {
        "generator" : "Khronos glTF Blender I/O v3.4.50",
        "version" : "2.0"
    },
    "scene" : 0,
    "scenes" : [
        {
            "name" : "Scene",
            "nodes" : [
                0,
                1,
                2,
                3
            ]
        }
    ],
    "nodes" : [
        {
            "mesh" : 0,
            "name" : "Mansion Door.001",
            "rotation" : [
                0,
                -1,
                0,
                7.549789415861596e-08
            ],
            "translation" : [
                -0.005611144006252289,
                0.08083879202604294,
                -0.08620797842741013
            ]
        },
        {
            "mesh" : 1,
            "name" : "Mansion Door.002",
            "rotation" : [
                0,
                -1,
                0,
                7.549789415861596e-08
            ],
            "translation" : [
                -0.005611144006252289,
                0.08083879202604294,
                -0.08620797842741013
            ]
        },
        {
            "name" : "Mansion Door.003",
            "rotation" : [
                0,
                -1,
                0,
                7.549789415861596e-08
            ],
            "translation" : [
                -0.005611144006252289,
                0.08083879202604294,
                -0.08620797842741013
            ]
        },
        {
            "mesh" : 2,
            "name" : "Cube",
            "scale" : [
                0.5970776677131653,
                1,
                4.047575950622559
            ],
            "translation" : [
                -6.274589538574219,
                -0.2602522075176239,
                -18.6221981048584
            ]
        }
    ],
    "materials" : [
        {
            "doubleSided" : true,
            "name" : "Mansion_door",
            "pbrMetallicRoughness" : {
                "baseColorFactor" : [
                    0.800000011920929,
                    0.800000011920929,
                    0.800000011920929,
                    1
                ],
                "metallicFactor" : 0,
                "roughnessFactor" : 0.5
            }
        },
        {
            "doubleSided" : true,
            "name" : "panel",
            "pbrMetallicRoughness" : {
                "baseColorFactor" : [
                    0.05838833376765251,
                    0.05838833376765251,
                    0.05838833376765251,
                    1
                ],
                "metallicFactor" : 0,
                "roughnessFactor" : 0.36363643407821655
            }
        }
    ],
    "meshes" : [
        {
            "name" : "Cube.001",
            "primitives" : [
                {
                    "attributes" : {
                        "POSITION" : 0,
                        "TEXCOORD_0" : 1,
                        "NORMAL" : 2
                    },
                    "indices" : 3,
                    "material" : 0
                }
            ]
        },
        {
            "name" : "Cube.002",
            "primitives" : [
                {
                    "attributes" : {
                        "POSITION" : 4,
                        "TEXCOORD_0" : 5,
                        "NORMAL" : 6
                    },
                    "indices" : 7,
                    "material" : 1
                }
            ]
        },
        {
            "name" : "Cube.004",
            "primitives" : [
                {
                    "attributes" : {
                        "POSITION" : 8,
                        "TEXCOORD_0" : 9,
                        "NORMAL" : 10
                    },
                    "indices" : 11
                }
            ]
        }
    ],
    "accessors" : [
        {
            "bufferView" : 0,
            "componentType" : 5126,
            "count" : 18104,
            "max" : [
                0.9983928203582764,
                2.3999998569488525,
                0.07301797717809677
            ],
            "min" : [
                -0.9983928203582764,
                0,
                -0.07301797717809677
            ],
            "type" : "VEC3"
        },
        {
            "bufferView" : 1,
            "componentType" : 5126,
            "count" : 18104,
            "type" : "VEC2"
        },
        {
            "bufferView" : 2,
            "componentType" : 5126,
            "count" : 18104,
            "type" : "VEC3"
        },
        {
            "bufferView" : 3,
            "componentType" : 5123,
            "count" : 62916,
            "type" : "SCALAR"
        },
        {
            "bufferView" : 4,
            "componentType" : 5126,
            "count" : 83,
            "max" : [
                6.997655868530273,
                2.8997089862823486,
                24.909427642822266
            ],
            "min" : [
                -7.000001907348633,
                -0.009999999776482582,
                -0.2169434130191803
            ],
            "type" : "VEC3"
        },
        {
            "bufferView" : 5,
            "componentType" : 5126,
            "count" : 83,
            "type" : "VEC2"
        },
        {
            "bufferView" : 6,
            "componentType" : 5126,
            "count" : 83,
            "type" : "VEC3"
        },
        {
            "bufferView" : 7,
            "componentType" : 5123,
            "count" : 162,
            "type" : "SCALAR"
        },
        {
            "bufferView" : 8,
            "componentType" : 5126,
            "count" : 24,
            "max" : [
                1,
                1,
                1
            ],
            "min" : [
                -1,
                -1,
                -1
            ],
            "type" : "VEC3"
        },
        {
            "bufferView" : 9,
            "componentType" : 5126,
            "count" : 24,
            "type" : "VEC2"
        },
        {
            "bufferView" : 10,
            "componentType" : 5126,
            "count" : 24,
            "type" : "VEC3"
        },
        {
            "bufferView" : 11,
            "componentType" : 5123,
            "count" : 36,
            "type" : "SCALAR"
        }
    ],
    "bufferViews" : [
        {
            "buffer" : 0,
            "byteLength" : 217248,
            "byteOffset" : 0,
            "target" : 34962
        },
        {
            "buffer" : 0,
            "byteLength" : 144832,
            "byteOffset" : 217248,
            "target" : 34962
        },
        {
            "buffer" : 0,
            "byteLength" : 217248,
            "byteOffset" : 362080,
            "target" : 34962
        },
        {
            "buffer" : 0,
            "byteLength" : 125832,
            "byteOffset" : 579328,
            "target" : 34963
        },
        {
            "buffer" : 0,
            "byteLength" : 996,
            "byteOffset" : 705160,
            "target" : 34962
        },
        {
            "buffer" : 0,
            "byteLength" : 664,
            "byteOffset" : 706156,
            "target" : 34962
        },
        {
            "buffer" : 0,
            "byteLength" : 996,
            "byteOffset" : 706820,
            "target" : 34962
        },
        {
            "buffer" : 0,
            "byteLength" : 324,
            "byteOffset" : 707816,
            "target" : 34963
        },
        {
            "buffer" : 0,
            "byteLength" : 288,
            "byteOffset" : 708140,
            "target" : 34962
        },
        {
            "buffer" : 0,
            "byteLength" : 192,
            "byteOffset" : 708428,
            "target" : 34962
        },
        {
            "buffer" : 0,
            "byteLength" : 288,
            "byteOffset" : 708620,
            "target" : 34962
        },
        {
            "buffer" : 0,
            "byteLength" : 72,
            "byteOffset" : 708908,
            "target" : 34963
        }
    ],
    "buffers" : [
        {
            "byteLength" : 708980,
            "uri" : "data:application/octet-stream;base64,"
        }
    ]
}
