{
    "asset" : {
        "generator" : "Khronos glTF Blender I/O v3.3.36",
        "version" : "2.0"
    },
    "scene" : 0,
    "scenes" : [
        {
            "name" : "Scene",
            "nodes" : [
                24
            ]
        }
    ],
    "nodes" : [
        {
            "name" : "Bone.005",
            "rotation" : [
                -0.16452686488628387,
                1.1758475437773086e-07,
                -1.96131271223976e-08,
                0.9863725900650024
            ],
            "scale" : [
                0.9999999403953552,
                0.9999997615814209,
                0.9999998807907104
            ],
            "translation" : [
                0,
                0.09889844059944153,
                4.470348358154297e-08
            ]
        },
        {
            "children" : [
                0
            ],
            "name" : "Bone.004",
            "rotation" : [
                0.16452687978744507,
                0,
                0,
                0.9863725900650024
            ],
            "scale" : [
                0.9999999403953552,
                0.9999999403953552,
                0.9999999403953552
            ],
            "translation" : [
                0,
                0.25,
                0
            ]
        },
        {
            "name" : "Bone.003_L.002",
            "rotation" : [
                0.0749090164899826,
                -0.004235112573951483,
                -0.07108397781848907,
                0.9946446418762207
            ],
            "scale" : [
                1,
                1,
                1.0000001192092896
            ],
            "translation" : [
                -4.470348358154297e-08,
                0.38882744312286377,
                7.450580596923828e-09
            ]
        },
        {
            "children" : [
                2
            ],
            "name" : "Bone.003_L.001",
            "rotation" : [
                0.04973306879401207,
                -0.07710950821638107,
                -0.19593772292137146,
                0.9763141870498657
            ],
            "translation" : [
                -4.470348358154297e-08,
                0.389035165309906,
                -1.4901161193847656e-08
            ]
        },
        {
            "children" : [
                3
            ],
            "name" : "Bone.003_L",
            "rotation" : [
                -0.35029420256614685,
                -0.07191658020019531,
                -0.7805384993553162,
                0.5127199292182922
            ],
            "scale" : [
                1,
                0.9999999403953552,
                0.9999999403953552
            ],
            "translation" : [
                0,
                0.25,
                0
            ]
        },
        {
            "name" : "Bone.003_R.002",
            "rotation" : [
                0.0749090164899826,
                0.004235112573951483,
                0.07108397781848907,
                0.9946446418762207
            ],
            "scale" : [
                1,
                1,
                1.0000001192092896
            ],
            "translation" : [
                4.470348358154297e-08,
                0.38882744312286377,
                7.450580596923828e-09
            ]
        },
        {
            "children" : [
                5
            ],
            "name" : "Bone.003_R.001",
            "rotation" : [
                0.04973306879401207,
                0.07710950821638107,
                0.19593772292137146,
                0.9763141870498657
            ],
            "translation" : [
                4.470348358154297e-08,
                0.389035165309906,
                -1.4901161193847656e-08
            ]
        },
        {
            "children" : [
                6
            ],
            "name" : "Bone.003_R",
            "rotation" : [
                -0.35029420256614685,
                0.07191658020019531,
                0.7805384993553162,
                0.5127199292182922
            ],
            "scale" : [
                1,
                0.9999999403953552,
                0.9999999403953552
            ],
            "translation" : [
                0,
                0.25,
                0
            ]
        },
        {
            "children" : [
                1,
                4,
                7
            ],
            "name" : "Bone.003",
            "scale" : [
                0.9999999403953552,
                0.9999999403953552,
                0.9999999403953552
            ],
            "translation" : [
                0,
                0.25,
                0
            ]
        },
        {
            "children" : [
                8
            ],
            "name" : "Bone.001",
            "scale" : [
                0.9999999403953552,
                0.9999999403953552,
                0.9999999403953552
            ],
            "translation" : [
                0,
                0.25000011920928955,
                0
            ]
        },
        {
            "children" : [
                9
            ],
            "name" : "Bone.002",
            "scale" : [
                0.9999999403953552,
                0.9999999403953552,
                0.9999999403953552
            ],
            "translation" : [
                0,
                0.25000011920928955,
                0
            ]
        },
        {
            "children" : [
                10
            ],
            "name" : "Bone",
            "scale" : [
                0.9999999403953552,
                0.9999999403953552,
                0.9999999403953552
            ],
            "translation" : [
                0,
                -0.06514406204223633,
                -0.07451698929071426
            ]
        },
        {
            "name" : "Bone_L.004",
            "rotation" : [
                -0.008946050889790058,
                -0.12476469576358795,
                -0.7044597864151001,
                0.6986345052719116
            ],
            "scale" : [
                1,
                0.9999999403953552,
                1
            ],
            "translation" : [
                1.862645149230957e-08,
                0.7282446622848511,
                1.5832483768463135e-08
            ]
        },
        {
            "children" : [
                12
            ],
            "name" : "Bone_L.003",
            "rotation" : [
                -0.03818104788661003,
                0.008055930957198143,
                0.04512712359428406,
                0.998218834400177
            ],
            "scale" : [
                1,
                1,
                0.9999999403953552
            ],
            "translation" : [
                7.450580596923828e-09,
                0.5189042091369629,
                -4.190951585769653e-09
            ]
        },
        {
            "children" : [
                13
            ],
            "name" : "Bone_L.002",
            "rotation" : [
                -0.6213570237159729,
                0.04161880537867546,
                -0.021239224821329117,
                0.782133162021637
            ],
            "scale" : [
                0.9999999403953552,
                0.9999998807907104,
                1
            ],
            "translation" : [
                0,
                0.2115468680858612,
                0
            ]
        },
        {
            "children" : [
                14
            ],
            "name" : "Bone_L",
            "rotation" : [
                -0.5,
                -0.5,
                -0.5,
                0.5
            ],
            "scale" : [
                0.9999999403953552,
                0.9999999403953552,
                0.9999999403953552
            ],
            "translation" : [
                0,
                -0.06514406204223633,
                -0.07451698929071426
            ]
        },
        {
            "name" : "Bone_R.004",
            "rotation" : [
                -0.008946050889790058,
                0.12476469576358795,
                0.7044597864151001,
                0.6986345052719116
            ],
            "scale" : [
                1,
                0.9999999403953552,
                1
            ],
            "translation" : [
                -1.862645149230957e-08,
                0.7282446622848511,
                1.5832483768463135e-08
            ]
        },
        {
            "children" : [
                16
            ],
            "name" : "Bone_R.003",
            "rotation" : [
                -0.03818104788661003,
                -0.008055930957198143,
                -0.04512712359428406,
                0.998218834400177
            ],
            "scale" : [
                1,
                1,
                0.9999999403953552
            ],
            "translation" : [
                -7.450580596923828e-09,
                0.5189042091369629,
                -4.190951585769653e-09
            ]
        },
        {
            "children" : [
                17
            ],
            "name" : "Bone_R.002",
            "rotation" : [
                -0.6213570237159729,
                -0.04161880537867546,
                0.021239224821329117,
                0.782133162021637
            ],
            "scale" : [
                0.9999999403953552,
                0.9999998807907104,
                1
            ],
            "translation" : [
                0,
                0.2115468680858612,
                0
            ]
        },
        {
            "children" : [
                18
            ],
            "name" : "Bone_R",
            "rotation" : [
                -0.5,
                0.5,
                0.5,
                0.5
            ],
            "scale" : [
                0.9999999403953552,
                0.9999999403953552,
                0.9999999403953552
            ],
            "translation" : [
                0,
                -0.06514406204223633,
                -0.07451698929071426
            ]
        },
        {
            "name" : "neutral_bone",
            "rotation" : [
                -0.7071068286895752,
                0,
                0,
                0.7071068286895752
            ]
        },
        {
            "name" : "neutral_bone",
            "rotation" : [
                -0.7071068286895752,
                0,
                0,
                0.7071068286895752
            ]
        },
        {
            "mesh" : 0,
            "name" : "player.001",
            "skin" : 0
        },
        {
            "mesh" : 1,
            "name" : "player.003",
            "skin" : 0
        },
        {
            "children" : [
                22,
                23,
                11,
                15,
                19,
                20,
                21
            ],
            "name" : "Armature",
            "scale" : [
                0.5034050345420837,
                0.5034050345420837,
                0.5034050345420837
            ],
            "translation" : [
                0,
                0.6964640617370605,
                0
            ]
        }
    ],
    "materials" : [
        {
            "doubleSided" : true,
            "name" : "CLU_Helmet",
            "normalTexture" : {
                "index" : 0
            },
            "pbrMetallicRoughness" : {
                "baseColorTexture" : {
                    "index" : 1
                },
                "metallicFactor" : 0,
                "roughnessFactor" : 0.4000000059604645
            }
        },
        {
            "doubleSided" : true,
            "name" : "CLU_Body",
            "pbrMetallicRoughness" : {
                "baseColorTexture" : {
                    "index" : 2
                },
                "metallicFactor" : 0,
                "roughnessFactor" : 0.4000000059604645
            }
        }
    ],
    "meshes" : [
        {
            "name" : "Tron_Evolution/Characters/CLU.mdl_head_CLU_Helmet.smd_MESH.003",
            "primitives" : [
                {
                    "attributes" : {
                        "POSITION" : 0,
                        "NORMAL" : 1,
                        "TEXCOORD_0" : 2,
                        "JOINTS_0" : 3,
                        "WEIGHTS_0" : 4
                    },
                    "indices" : 5,
                    "material" : 0
                }
            ]
        },
        {
            "name" : "Tron_Evolution/Characters/CLU.mdl_head_CLU_Helmet.smd_MESH.004",
            "primitives" : [
                {
                    "attributes" : {
                        "POSITION" : 7,
                        "NORMAL" : 8,
                        "TEXCOORD_0" : 9,
                        "JOINTS_0" : 10,
                        "WEIGHTS_0" : 11
                    },
                    "indices" : 12,
                    "material" : 1
                }
            ]
        }
    ],
    "textures" : [
        {
            "sampler" : 0,
            "source" : 0
        },
        {
            "sampler" : 0,
            "source" : 0
        },
        {
            "sampler" : 0,
            "source" : 1
        }
    ],
    "images" : [
        {
            "bufferView" : 6,
            "mimeType" : "image/png",
            "name" : "clu_statue_Clu_MP_HelmetLOD0_MI.001_Albedo"
        },
        {
            "bufferView" : 14,
            "mimeType" : "image/png",
            "name" : "clu_body_i"
        }
    ],
    "skins" : [
        {
            "inverseBindMatrices" : 6,
            "joints" : [
                11,
                10,
                9,
                8,
                1,
                0,
                4,
                3,
                2,
                7,
                6,
                5,
                15,
                14,
                13,
                12,
                19,
                18,
                17,
                16,
                20,
                21
            ],
            "name" : "Armature"
        }
    ],
    "accessors" : [
        {
            "bufferView" : 0,
            "componentType" : 5126,
            "count" : 252,
            "max" : [
                0.09124983102083206,
                1.4107517004013062,
                0.09498240053653717
            ],
            "min" : [
                -0.09103136509656906,
                1.1909619569778442,
                -0.1456698626279831
            ],
            "type" : "VEC3"
        },
        {
            "bufferView" : 1,
            "componentType" : 5126,
            "count" : 252,
            "type" : "VEC3"
        },
        {
            "bufferView" : 2,
            "componentType" : 5126,
            "count" : 252,
            "type" : "VEC2"
        },
        {
            "bufferView" : 3,
            "componentType" : 5121,
            "count" : 252,
            "type" : "VEC4"
        },
        {
            "bufferView" : 4,
            "componentType" : 5126,
            "count" : 252,
            "type" : "VEC4"
        },
        {
            "bufferView" : 5,
            "componentType" : 5123,
            "count" : 921,
            "type" : "SCALAR"
        },
        {
            "bufferView" : 7,
            "componentType" : 5126,
            "count" : 22,
            "type" : "MAT4"
        },
        {
            "bufferView" : 8,
            "componentType" : 5126,
            "count" : 1239,
            "max" : [
                0.5605728030204773,
                1.2787576913833618,
                0.08893196284770966
            ],
            "min" : [
                -0.5605726838111877,
                0.0029810722917318344,
                -0.1641933023929596
            ],
            "type" : "VEC3"
        },
        {
            "bufferView" : 9,
            "componentType" : 5126,
            "count" : 1239,
            "type" : "VEC3"
        },
        {
            "bufferView" : 10,
            "componentType" : 5126,
            "count" : 1239,
            "type" : "VEC2"
        },
        {
            "bufferView" : 11,
            "componentType" : 5121,
            "count" : 1239,
            "type" : "VEC4"
        },
        {
            "bufferView" : 12,
            "componentType" : 5126,
            "count" : 1239,
            "type" : "VEC4"
        },
        {
            "bufferView" : 13,
            "componentType" : 5123,
            "count" : 4995,
            "type" : "SCALAR"
        }
    ],
    "bufferViews" : [
        {
            "buffer" : 0,
            "byteLength" : 3024,
            "byteOffset" : 0,
            "target" : 34962
        },
        {
            "buffer" : 0,
            "byteLength" : 3024,
            "byteOffset" : 3024,
            "target" : 34962
        },
        {
            "buffer" : 0,
            "byteLength" : 2016,
            "byteOffset" : 6048,
            "target" : 34962
        },
        {
            "buffer" : 0,
            "byteLength" : 1008,
            "byteOffset" : 8064,
            "target" : 34962
        },
        {
            "buffer" : 0,
            "byteLength" : 4032,
            "byteOffset" : 9072,
            "target" : 34962
        },
        {
            "buffer" : 0,
            "byteLength" : 1842,
            "byteOffset" : 13104,
            "target" : 34963
        },
        {
            "buffer" : 0,
            "byteLength" : 641940,
            "byteOffset" : 14948
        },
        {
            "buffer" : 0,
            "byteLength" : 1408,
            "byteOffset" : 656888
        },
        {
            "buffer" : 0,
            "byteLength" : 14868,
            "byteOffset" : 658296,
            "target" : 34962
        },
        {
            "buffer" : 0,
            "byteLength" : 14868,
            "byteOffset" : 673164,
            "target" : 34962
        },
        {
            "buffer" : 0,
            "byteLength" : 9912,
            "byteOffset" : 688032,
            "target" : 34962
        },
        {
            "buffer" : 0,
            "byteLength" : 4956,
            "byteOffset" : 697944,
            "target" : 34962
        },
        {
            "buffer" : 0,
            "byteLength" : 19824,
            "byteOffset" : 702900,
            "target" : 34962
        },
        {
            "buffer" : 0,
            "byteLength" : 9990,
            "byteOffset" : 722724,
            "target" : 34963
        },
        {
            "buffer" : 0,
            "byteLength" : 261832,
            "byteOffset" : 732716
        }
    ],
    "samplers" : [
        {
            "magFilter" : 9729,
            "minFilter" : 9987
        }
    ],
    "buffers" : [
        {
            "byteLength" : 994548,
            "uri" : "data:application/octet-stream;base64,"
        }
    ]
}
